<?xml version="1.0" standalone="no"?>
<!DOCTYPE svg PUBLIC "-//W3C//DTD SVG 20010904//EN"
 "http://www.w3.org/TR/2001/REC-SVG-20010904/DTD/svg10.dtd">
<svg version="1.0" xmlns="http://www.w3.org/2000/svg"
 width="197.000000pt" height="197.000000pt" viewBox="0 0 197.000000 197.000000"
 preserveAspectRatio="xMidYMid meet">
<metadata>
Created by potrace 1.11, written by Peter Selinger 2001-2013
</metadata>
<g transform="translate(0.000000,197.000000) scale(0.100000,-0.100000)"
fill="#000000" stroke="none">
<path d="M1195 1188 c-16 -6 -36 -15 -43 -21 -21 -16 -62 -116 -74 -176 -16
-81 -71 -117 -113 -74 -31 30 0 139 34 119 6 -4 11 -16 11 -27 0 -22 9 -24 34
-6 15 11 17 17 7 35 -28 52 -134 2 -148 -70 -6 -31 -42 -63 -55 -50 -5 5 -4
32 3 61 14 68 8 81 -37 81 -45 0 -96 -30 -113 -67 -7 -15 -18 -39 -25 -53 -13
-27 -56 -41 -56 -17 0 8 9 40 20 72 22 63 18 82 -8 50 -10 -11 -26 -27 -36
-35 -17 -13 -18 -12 -14 15 2 23 -1 30 -16 33 -11 2 -26 -4 -33 -14 -16 -22
-17 -61 -2 -66 16 -5 -51 -68 -80 -75 -13 -3 -31 -1 -40 4 -22 14 -26 79 -6
109 18 28 40 27 40 -2 0 -13 6 -18 20 -16 48 9 34 62 -16 62 -43 0 -84 -32
-103 -81 -29 -71 -5 -119 59 -119 39 0 78 24 123 75 48 55 67 59 46 10 -32
-78 14 -111 82 -59 19 15 34 22 34 16 0 -20 31 -42 59 -42 16 0 39 11 54 24
15 14 30 20 38 16 7 -5 21 -5 33 -1 15 6 25 2 39 -15 26 -33 79 -32 124 2 l33
25 0 -26 c0 -22 4 -25 28 -22 25 3 27 8 32 55 4 35 13 59 29 76 28 30 57 35
47 9 -31 -80 -38 -114 -26 -128 7 -8 23 -15 35 -15 28 0 85 45 85 68 0 13 -4
11 -20 -6 -40 -42 -50 -25 -25 43 21 60 20 95 -6 95 -11 0 -30 -5 -41 -11 -22
-12 -19 -1 8 31 16 20 34 88 27 106 -6 16 -7 16 -48 2z m21 -61 c-21 -52 -66
-113 -66 -91 0 21 34 100 52 121 18 23 28 3 14 -30z m-415 -105 c-15 -27 -14
-75 1 -90 16 -16 -13 -47 -35 -39 -33 12 -23 110 14 140 26 21 35 16 20 -11z"/>
<path d="M1351 1177 c-19 -21 -20 -25 -6 -37 22 -18 19 -36 -12 -59 -14 -12
-24 -24 -20 -27 11 -11 67 27 82 56 14 27 14 33 0 60 -9 17 -17 30 -19 30 -1
0 -12 -11 -25 -23z"/>
<path d="M1467 1193 c-2 -5 -3 -61 -3 -126 l1 -118 -27 7 c-61 13 -117 -22
-103 -66 12 -39 117 -49 143 -13 8 11 12 55 12 130 0 95 2 113 15 113 25 0 64
-30 91 -69 23 -34 24 -35 24 -10 0 45 -48 126 -84 143 -37 17 -63 20 -69 9z"/>
<path d="M1650 1015 l0 -125 -37 5 c-53 8 -88 -12 -88 -50 0 -38 40 -60 91
-51 52 10 60 30 59 151 0 76 3 109 12 112 12 5 73 -26 73 -37 1 -3 12 -18 25
-35 26 -32 27 -29 9 40 -14 56 -62 103 -115 112 l-29 4 0 -126z"/>
<path d="M184 1055 c-26 -11 -44 -32 -44 -51 0 -11 30 -2 37 10 12 22 55 29
77 13 31 -23 13 -44 -43 -52 -69 -9 -96 -49 -65 -94 17 -24 71 -29 107 -10 16
9 22 9 25 0 2 -6 10 -11 18 -11 11 0 14 18 14 83 0 69 -3 87 -19 101 -24 22
-70 27 -107 11z m84 -122 c-5 -49 -98 -71 -98 -24 0 24 18 38 55 44 17 2 34 5
38 6 5 0 7 -11 5 -26z"/>
</g>
</svg>
